<?xml version="1.0" standalone="no"?>
<!DOCTYPE svg PUBLIC "-//W3C//DTD SVG 20010904//EN"
 "http://www.w3.org/TR/2001/REC-SVG-20010904/DTD/svg10.dtd">
<svg version="1.0" xmlns="http://www.w3.org/2000/svg"
 width="1024.000000pt" height="1024.000000pt" viewBox="0 0 1024.000000 1024.000000"
 preserveAspectRatio="xMidYMid meet">
<metadata>
Created by potrace 1.16, written by Peter Selinger 2001-2019
</metadata>
<g transform="translate(0.000000,1024.000000) scale(0.100000,-0.100000)"
fill="#000000" stroke="none">
<path d="M0 5120 l0 -5120 5120 0 5120 0 0 5120 0 5120 -5120 0 -5120 0 0
-5120z m5615 4731 c341 -40 647 -101 890 -178 74 -23 168 -53 182 -58 7 -2
-13 -54 -56 -142 -38 -76 -105 -214 -151 -306 -94 -194 -66 -179 -240 -127
-224 67 -492 116 -780 141 -145 13 -676 6 -760 -10 -30 -5 -91 -15 -135 -21
-185 -24 -389 -69 -575 -125 -100 -30 -131 -38 -135 -34 -2 3 7 36 20 74 13
39 42 131 65 205 23 74 54 173 70 220 15 47 40 126 56 177 25 79 32 92 54 96
260 53 500 86 725 101 102 6 685 -3 770 -13z m-2469 -688 c58 -120 126 -257
150 -306 l44 -88 -33 -19 c-17 -11 -35 -20 -39 -20 -4 0 -38 -18 -75 -41 -36
-23 -74 -44 -83 -47 -17 -8 -172 -103 -180 -112 -3 -3 -32 -23 -65 -45 -58
-39 -72 -48 -98 -70 -7 -5 -39 -30 -72 -55 -33 -24 -71 -54 -85 -66 -14 -12
-63 -54 -110 -94 -83 -71 -275 -260 -355 -350 -308 -346 -562 -755 -729 -1172
-33 -82 -61 -148 -62 -148 -5 0 -94 50 -204 115 -58 35 -127 75 -155 90 -105
58 -235 136 -235 141 0 3 6 20 14 37 38 83 56 126 56 133 0 34 309 612 332
622 4 2 8 7 8 12 0 7 28 52 80 130 28 43 91 132 100 143 6 7 24 30 41 52 69
91 132 170 192 240 97 114 412 424 530 522 66 54 124 103 131 108 28 25 240
177 331 236 131 86 441 266 463 269 1 0 50 -98 108 -217z m4481 0 c121 -76
305 -203 360 -247 10 -8 56 -45 103 -82 265 -211 549 -502 786 -804 207 -265
468 -714 594 -1025 22 -55 45 -108 50 -117 6 -10 10 -23 10 -29 0 -6 7 -25 15
-42 13 -29 60 -169 98 -292 19 -62 80 -301 96 -375 32 -155 44 -225 71 -437
18 -141 31 -510 24 -695 l-7 -188 -336 0 -336 0 0 328 c-1 377 -22 587 -92
897 -35 154 -123 454 -153 520 -5 11 -25 61 -45 110 -66 164 -147 333 -227
468 -32 54 -58 101 -58 103 0 5 -72 116 -80 124 -3 3 -23 32 -45 65 -36 55
-191 264 -204 275 -4 3 -26 30 -51 60 -116 141 -310 335 -450 450 -30 25 -57
48 -60 51 -3 4 -57 45 -120 93 -63 47 -119 89 -125 94 -12 9 -162 108 -222
146 -24 14 -43 32 -43 39 0 6 32 73 69 147 38 74 105 206 148 292 43 86 81
157 85 157 3 1 69 -38 145 -86z m-2387 -871 c0 -5 -13 -36 -30 -70 -16 -34
-30 -64 -30 -66 0 -4 -58 -129 -121 -263 -21 -45 -39 -84 -39 -86 0 -5 -52
-118 -125 -272 -13 -27 -38 -81 -55 -120 -36 -79 -58 -126 -124 -268 -25 -55
-46 -100 -46 -102 0 -2 -20 -45 -44 -97 -24 -51 -53 -115 -66 -143 -13 -27
-42 -92 -66 -143 -24 -52 -44 -96 -44 -98 0 -2 -20 -45 -44 -96 -24 -51 -60
-129 -80 -173 -20 -44 -44 -97 -54 -117 l-17 -38 -397 0 c-230 0 -398 4 -398
9 0 5 17 47 39 93 21 45 57 123 80 171 22 49 41 90 41 92 0 2 17 41 39 87 42
90 123 267 166 363 15 33 37 83 50 110 12 28 37 82 55 120 17 39 40 88 50 110
10 22 32 70 49 108 17 37 45 97 62 135 17 37 39 85 49 107 10 22 29 65 43 95
14 30 41 91 62 135 37 79 75 162 100 220 7 17 32 69 54 118 l40 87 401 0 c220
0 400 -4 400 -8z m490 -11 c0 -5 68 -123 151 -262 83 -140 154 -261 157 -269
3 -8 13 -26 22 -40 10 -14 27 -42 39 -62 11 -21 31 -55 42 -75 12 -21 78 -135
148 -253 70 -118 160 -271 200 -340 40 -69 86 -147 102 -173 16 -27 29 -51 29
-53 0 -3 11 -22 25 -42 14 -20 25 -40 25 -44 0 -5 -191 -8 -424 -8 l-423 0
-68 133 c-37 72 -110 213 -160 312 -51 99 -128 250 -172 335 l-80 155 22 40
c12 22 70 135 130 250 125 243 205 397 212 408 5 9 23 -1 23 -12z m-352 -2167
c79 -30 145 -82 200 -159 23 -32 51 -109 62 -167 10 -56 9 -77 -4 -135 -22
-98 -51 -150 -120 -218 -209 -205 -564 -125 -665 150 -27 73 -30 207 -7 272
49 139 167 244 306 274 53 12 175 3 228 -17z m-4183 -191 c-15 -39 -45 -272
-66 -514 -18 -212 1 -607 41 -844 5 -33 12 -77 15 -97 l5 -38 -344 0 -344 0
-5 38 c-44 345 -50 425 -50 707 0 257 5 337 34 585 6 47 13 106 16 133 l6 47
349 0 c330 0 350 -1 343 -17z m5817 -180 c19 -38 53 -102 75 -143 78 -145 126
-236 176 -330 80 -152 131 -249 177 -335 23 -44 63 -118 88 -165 25 -47 59
-112 77 -145 18 -33 58 -109 90 -170 32 -60 71 -135 88 -165 16 -30 53 -100
82 -155 29 -55 68 -129 87 -165 20 -36 57 -105 83 -155 60 -114 111 -209 164
-308 22 -43 41 -82 41 -87 0 -6 -155 -10 -403 -10 l-404 0 -35 68 c-20 37 -61
117 -93 177 -106 201 -274 523 -345 660 -79 152 -179 343 -235 450 -46 87
-101 192 -238 455 -35 69 -79 151 -96 183 -73 134 -201 388 -201 397 0 6 140
10 393 10 l394 0 35 -67z m-3360 -669 c3 -3 -22 -69 -56 -147 -81 -183 -105
-237 -116 -262 -5 -11 -19 -42 -31 -70 -33 -79 -45 -105 -78 -178 -17 -38 -31
-70 -31 -72 0 -2 -16 -38 -36 -82 -55 -120 -64 -141 -64 -146 0 -3 -16 -40
-36 -84 -56 -123 -63 -137 -146 -328 -43 -99 -84 -192 -91 -207 l-12 -28 -377
0 c-221 0 -378 4 -378 9 0 9 74 186 118 281 11 25 52 120 91 211 39 92 84 196
101 232 16 36 30 68 30 72 0 5 15 42 55 130 7 17 43 100 80 185 36 85 70 164
75 175 5 11 15 36 24 55 8 19 27 64 43 100 16 36 38 86 49 112 l19 48 381 0
c209 0 383 -3 386 -6z m2709 -1001 c56 -115 148 -302 204 -418 56 -115 143
-293 193 -395 49 -102 152 -311 227 -465 177 -361 235 -482 235 -489 0 -3
-168 -6 -374 -6 l-375 0 -83 164 c-46 91 -191 379 -323 640 l-240 476 -625 0
-625 0 -29 -73 c-16 -39 -34 -85 -41 -102 -8 -16 -30 -73 -50 -125 -21 -52
-43 -108 -51 -125 -7 -16 -22 -55 -34 -85 -11 -30 -25 -64 -30 -75 -5 -11 -61
-153 -126 -315 -64 -162 -125 -314 -135 -337 l-19 -43 -365 0 c-201 0 -365 3
-365 6 0 3 6 20 14 37 55 121 72 161 101 232 18 44 45 107 59 140 15 33 31 69
36 80 9 22 8 19 105 245 62 144 93 216 115 265 5 11 45 106 90 210 45 105 88
204 95 220 7 17 55 127 106 245 50 118 100 234 110 258 l18 42 1041 0 1040 0
101 -207z m-5021 -201 c0 -10 4 -22 8 -27 5 -6 19 -41 32 -80 12 -38 26 -74
30 -80 4 -5 11 -21 15 -34 23 -75 155 -340 246 -496 66 -112 97 -160 162 -258
29 -45 204 -274 225 -296 9 -10 28 -31 41 -47 153 -184 474 -483 641 -597 25
-17 50 -36 56 -42 6 -5 22 -17 34 -25 12 -8 39 -26 59 -40 20 -14 93 -61 163
-105 l128 -78 -19 -31 c-11 -17 -32 -56 -49 -86 -16 -30 -43 -79 -61 -108 -17
-29 -31 -55 -31 -57 0 -3 -20 -39 -45 -81 -25 -41 -45 -77 -45 -79 0 -5 -81
-145 -84 -145 -16 0 -223 127 -356 218 -95 66 -299 218 -355 267 -16 14 -55
47 -85 72 -58 50 -357 347 -426 423 -37 41 -136 161 -206 250 -15 19 -50 67
-77 105 -28 39 -54 75 -58 80 -15 19 -139 210 -175 270 -77 128 -198 362 -272
528 -34 76 -118 289 -114 291 2 1 35 18 73 38 212 111 522 267 533 267 6 1 12
-7 12 -17z m7445 -555 c5 -4 119 -89 252 -189 l241 -182 -15 -30 c-21 -43
-145 -250 -153 -256 -3 -3 -18 -26 -32 -51 -50 -85 -244 -348 -323 -435 -5 -7
-26 -31 -45 -55 -124 -154 -390 -415 -574 -564 -28 -22 -60 -50 -73 -61 -13
-12 -42 -34 -65 -50 -24 -16 -51 -37 -62 -46 -10 -9 -84 -61 -165 -116 -127
-86 -204 -133 -376 -230 -22 -13 -110 -57 -195 -98 -85 -41 -163 -79 -172 -85
-33 -18 -44 -9 -84 74 -22 45 -91 181 -153 301 -61 120 -110 220 -109 221 2 1
19 8 38 15 139 53 573 292 695 382 6 5 60 45 120 89 174 129 269 211 440 383
170 170 212 217 326 361 134 169 275 387 412 635 17 32 18 32 39 14 12 -11 27
-22 33 -27z m-4585 -2047 c172 -41 310 -65 530 -92 124 -16 704 -15 830 0 113
14 254 36 365 57 97 18 105 18 105 4 0 -6 6 -25 14 -42 8 -18 26 -61 41 -97
14 -36 30 -74 35 -85 5 -11 15 -36 24 -55 8 -19 28 -66 45 -103 17 -38 31 -71
31 -75 0 -4 6 -19 14 -34 8 -14 19 -43 26 -65 7 -21 17 -44 22 -50 12 -15 13
-15 -112 -42 -116 -25 -242 -48 -335 -61 -66 -10 -113 -15 -358 -40 -126 -13
-548 -13 -674 0 -299 30 -401 44 -583 79 -108 21 -180 37 -285 66 -33 9 -80
21 -105 27 -25 5 -48 13 -53 17 -4 4 9 43 29 87 20 43 45 99 56 124 12 25 40
87 64 138 24 52 44 95 44 97 0 2 18 42 41 90 46 99 25 93 189 55z"/>
</g>
</svg>
